<svg width="245" height="33" viewBox="0 0 245 33" fill="none" xmlns="http://www.w3.org/2000/svg">
<path d="M4.67702 1.221L15.3703 33H0L4.67702 1.221ZM34.7473 1.221L24.0554 33H39.4257L34.7473 1.221ZM12.6946 0H26.7298L19.7129 19.5553L12.6946 0Z" fill="white"/>
<path d="M67.4645 30.25H61.4606L50.6902 2.75H56.1587L64.4667 24.9728L72.7678 2.75H78.2335L67.4617 30.25H67.4645ZM86.8264 30.25H82.0158V2.75H86.8264V30.25ZM107.417 30.25H101.414L90.6418 2.75H96.1102L104.415 24.9728L112.722 2.75H118.189L107.417 30.25ZM140.757 30.25H121.965V2.75H140.757V6.996H126.778V14.0883H140.469V18.3342H126.778V26.004H140.757V30.25ZM170.283 30.25H165.637L151.332 10.5848V30.25H146.518V2.75H151.453L165.477 21.7992V2.75H170.283V30.25ZM187.172 30.25H176.935V2.75H187.129C195.725 2.75 201.479 8.43975 201.479 16.478C201.479 24.6015 195.725 30.25 187.175 30.25H187.172ZM187.132 26.004C193.094 26.004 196.546 21.714 196.546 16.4808C196.546 11.2008 193.257 6.996 187.172 6.996H181.745V26.004H187.132ZM211.758 30.25H206.949V2.75H211.758V30.25ZM243.121 30.25H237.653L235.639 24.9315H223.057L221.044 30.25H215.572L226.343 2.75H232.347L243.118 30.25H243.121ZM234.282 20.6855L229.348 7.5735L224.415 20.6855H234.282Z" fill="white"/>
</svg>
